<svg width="183" height="25" viewBox="0 0 183 25" fill="none" xmlns="http://www.w3.org/2000/svg">
<path fill-rule="evenodd" clip-rule="evenodd" d="M17.2724 9.74987C17.2724 13.2013 14.4715 15.9992 11.0165 15.9992C7.56142 15.9992 4.76054 13.2013 4.76054 9.74987C4.76054 6.29844 7.56142 3.50049 11.0165 3.50049C14.4715 3.50049 17.2724 6.29844 17.2724 9.74987ZM10.9703 14.6452H10.9584L10.9644 14.6452L10.9703 14.6452ZM10.3558 14.6074C10.3789 14.4387 10.3909 14.2661 10.3909 14.0905C10.3909 12.1297 8.89707 10.5401 7.05438 10.5401C6.7561 10.5401 6.46697 10.5818 6.19184 10.6599C6.56221 12.7297 8.24882 14.3438 10.3558 14.6074ZM6.12289 9.54156C6.25833 6.98777 8.37414 4.95869 10.9644 4.95869C13.5546 4.95869 15.6704 6.98777 15.8058 9.54156H6.12289ZM15.7416 10.6334C15.3867 12.6822 13.7433 14.29 11.6753 14.5935C11.6534 14.4292 11.6421 14.2612 11.6421 14.0905C11.6421 12.1297 13.1359 10.5401 14.9786 10.5401C15.2411 10.5401 15.4965 10.5724 15.7416 10.6334ZM11.5378 10.6873C11.5378 10.9749 11.3044 11.2081 11.0164 11.2081C10.7285 11.2081 10.4951 10.9749 10.4951 10.6873C10.4951 10.3997 10.7285 10.1665 11.0164 10.1665C11.3044 10.1665 11.5378 10.3997 11.5378 10.6873Z" fill="black"/>
<path d="M10.8008 0C13.6576 0 16.0399 0.979068 17.9476 2.93721C19.7461 4.78258 20.6972 7.05346 20.8008 9.74987H18.2957C18.1966 7.74259 17.4917 6.05997 16.1809 4.70203C14.7629 3.23384 12.9695 2.49975 10.8008 2.49975C8.63205 2.49975 6.8387 3.23384 5.42069 4.70203C4.10989 6.05997 3.40495 7.74259 3.30583 9.74987H0.800781C0.904372 7.05346 1.85544 4.78258 3.65399 2.93721C5.56162 0.979068 7.94391 0 10.8008 0Z" fill="black"/>
<path d="M17.4922 13.4995C17.2075 14.1112 16.8484 14.7463 16.4149 15.4047C15.1537 17.3212 13.2823 19.4147 10.8008 21.6853C8.31925 19.4147 6.44747 17.3212 5.18544 15.4047C4.75214 14.7463 4.39325 14.1112 4.10882 13.4995H1.40889C1.82325 14.6354 2.44606 15.8171 3.27738 17.0446C4.93564 19.4926 7.44344 22.1436 10.8008 24.9975C14.1581 22.1436 16.6655 19.4926 18.3229 17.0446C19.1547 15.8171 19.7778 14.6354 20.1924 13.4995H17.4922Z" fill="black"/>
<path d="M48.2008 18.8388C48.2541 18.9988 48.2808 19.0854 48.2808 19.0988C48.2808 19.3654 48.1541 19.4988 47.9008 19.4988H44.5808C44.2341 19.4988 43.9941 19.3654 43.8608 19.0988L41.8608 14.0988H41.4008V18.9588C41.4008 19.1054 41.3474 19.2321 41.2408 19.3388C41.1341 19.4454 41.0074 19.4988 40.8608 19.4988H38.2208C38.0741 19.4988 37.9474 19.4454 37.8408 19.3388C37.7341 19.2321 37.6808 19.1054 37.6808 18.9588V14.0988H37.2208L35.2208 19.0988C35.0874 19.3654 34.8474 19.4988 34.5008 19.4988H31.1808C30.9274 19.4988 30.8008 19.3654 30.8008 19.0988C30.8008 19.0854 30.8274 18.9988 30.8808 18.8388L33.7208 12.1988L31.2208 6.15877C31.1674 5.99877 31.1408 5.90543 31.1408 5.87877C31.1408 5.75877 31.1741 5.66543 31.2408 5.59877C31.3074 5.5321 31.3941 5.49877 31.5008 5.49877H34.8608C35.1274 5.49877 35.3141 5.64543 35.4208 5.93877L37.2808 10.7388H37.6808V6.03877C37.6808 5.8921 37.7341 5.76543 37.8408 5.65877C37.9474 5.5521 38.0741 5.49877 38.2208 5.49877H40.8608C41.0074 5.49877 41.1341 5.5521 41.2408 5.65877C41.3474 5.76543 41.4008 5.8921 41.4008 6.03877V10.7388H41.8008L43.6608 5.93877C43.7674 5.64543 43.9541 5.49877 44.2208 5.49877H47.5808C47.6874 5.49877 47.7741 5.5321 47.8408 5.59877C47.9074 5.66543 47.9408 5.75877 47.9408 5.87877C47.9408 5.90543 47.9141 5.99877 47.8608 6.15877L45.3608 12.1988L48.2008 18.8388Z" fill="black"/>
<path d="M53.673 18.8188C53.4996 19.2721 53.1996 19.4988 52.773 19.4988H48.993C48.873 19.4988 48.7663 19.4588 48.673 19.3788C48.593 19.2854 48.553 19.1788 48.553 19.0588L48.573 18.9388L52.933 6.15877C52.9863 5.98543 53.0863 5.8321 53.233 5.69877C53.3796 5.56543 53.5796 5.49877 53.833 5.49877H59.393C59.6463 5.49877 59.8463 5.56543 59.993 5.69877C60.1396 5.8321 60.2396 5.98543 60.293 6.15877L64.653 18.9388L64.673 19.0588C64.673 19.1788 64.6263 19.2854 64.533 19.3788C64.453 19.4588 64.353 19.4988 64.233 19.4988H60.453C60.0263 19.4988 59.7263 19.2721 59.553 18.8188L59.053 17.4188H54.173L53.673 18.8188ZM56.613 9.35877L55.193 13.5188H58.033L56.613 9.35877Z" fill="black"/>
<path d="M81.8052 18.7988C81.8585 18.8788 81.8852 18.9654 81.8852 19.0588C81.8852 19.1788 81.8385 19.2854 81.7452 19.3788C81.6652 19.4588 81.5652 19.4988 81.4452 19.4988H76.2852C75.9785 19.4988 75.7385 19.3921 75.5652 19.1788L72.4852 14.7188H71.8852V18.9588C71.8852 19.1054 71.8318 19.2321 71.7252 19.3388C71.6185 19.4454 71.4918 19.4988 71.3452 19.4988H67.2252C67.0785 19.4988 66.9518 19.4454 66.8452 19.3388C66.7385 19.2321 66.6852 19.1054 66.6852 18.9588V6.03877C66.6852 5.8921 66.7385 5.76543 66.8452 5.65877C66.9518 5.5521 67.0785 5.49877 67.2252 5.49877H71.3452C71.4918 5.49877 71.6185 5.5521 71.7252 5.65877C71.8318 5.76543 71.8852 5.8921 71.8852 6.03877V10.1588H72.3252L75.2452 5.83877C75.4452 5.6121 75.6918 5.49877 75.9852 5.49877H80.8052C80.9252 5.49877 81.0252 5.54543 81.1052 5.63877C81.1985 5.71877 81.2452 5.81877 81.2452 5.93877C81.2452 6.04543 81.2118 6.13877 81.1452 6.21877L76.4052 11.9988L81.8052 18.7988Z" fill="black"/>
<path d="M83.3973 19.4988C83.2507 19.4988 83.124 19.4454 83.0173 19.3388C82.9107 19.2321 82.8573 19.1054 82.8573 18.9588V6.03877C82.8573 5.8921 82.9107 5.76543 83.0173 5.65877C83.124 5.5521 83.2507 5.49877 83.3973 5.49877H86.5973C86.744 5.49877 86.8707 5.5521 86.9773 5.65877C87.084 5.76543 87.1373 5.8921 87.1373 6.03877V15.1988H88.5573V6.03877C88.5573 5.8921 88.6107 5.76543 88.7173 5.65877C88.824 5.5521 88.9507 5.49877 89.0973 5.49877H91.9373C92.084 5.49877 92.2107 5.5521 92.3173 5.65877C92.424 5.76543 92.4773 5.8921 92.4773 6.03877V15.1988H93.9173V6.03877C93.9173 5.8921 93.9707 5.76543 94.0773 5.65877C94.184 5.5521 94.3107 5.49877 94.4573 5.49877H97.6773C97.824 5.49877 97.9507 5.5521 98.0574 5.65877C98.164 5.7521 98.2173 5.87877 98.2173 6.03877V18.9588C98.2173 19.1054 98.164 19.2321 98.0574 19.3388C97.9507 19.4454 97.824 19.4988 97.6773 19.4988H83.3973Z" fill="black"/>
<path d="M104.87 9.95877C106.523 9.95877 107.823 10.3854 108.77 11.2388C109.716 12.0921 110.19 13.2454 110.19 14.6988C110.19 15.6054 109.976 16.4254 109.55 17.1588C109.136 17.8788 108.53 18.4521 107.73 18.8788C106.93 19.2921 105.983 19.4988 104.89 19.4988H99.9095C99.7629 19.4988 99.6362 19.4454 99.5295 19.3388C99.4229 19.2321 99.3695 19.1054 99.3695 18.9588V6.03877C99.3695 5.8921 99.4229 5.76543 99.5295 5.65877C99.6362 5.5521 99.7629 5.49877 99.9095 5.49877H103.43C103.576 5.49877 103.703 5.5521 103.81 5.65877C103.916 5.76543 103.97 5.8921 103.97 6.03877V9.95877H104.87ZM111.89 19.4988C111.743 19.4988 111.616 19.4454 111.51 19.3388C111.403 19.2321 111.35 19.1054 111.35 18.9588V6.03877C111.35 5.8921 111.403 5.76543 111.51 5.65877C111.616 5.5521 111.743 5.49877 111.89 5.49877H115.17C115.316 5.49877 115.443 5.5521 115.55 5.65877C115.656 5.76543 115.71 5.8921 115.71 6.03877V18.9588C115.71 19.1054 115.656 19.2321 115.55 19.3388C115.443 19.4454 115.316 19.4988 115.17 19.4988H111.89ZM104.87 15.7588C105.296 15.7588 105.623 15.6588 105.85 15.4588C106.076 15.2588 106.19 14.9854 106.19 14.6388C106.19 13.9454 105.75 13.5988 104.87 13.5988H103.97V15.7588H104.87Z" fill="black"/>
<path d="M150.154 18.8388C150.207 18.9988 150.234 19.0854 150.234 19.0988C150.234 19.3654 150.107 19.4988 149.854 19.4988H146.534C146.187 19.4988 145.947 19.3654 145.814 19.0988L143.814 14.0988H143.354V18.9588C143.354 19.1054 143.301 19.2321 143.194 19.3388C143.087 19.4454 142.961 19.4988 142.814 19.4988H140.174C140.027 19.4988 139.901 19.4454 139.794 19.3388C139.687 19.2321 139.634 19.1054 139.634 18.9588V14.0988H139.174L137.174 19.0988C137.041 19.3654 136.801 19.4988 136.454 19.4988H133.134C132.881 19.4988 132.754 19.3654 132.754 19.0988C132.754 19.0854 132.781 18.9988 132.834 18.8388L135.674 12.1988L133.174 6.15877C133.121 5.99877 133.094 5.90543 133.094 5.87877C133.094 5.75877 133.127 5.66543 133.194 5.59877C133.261 5.5321 133.347 5.49877 133.454 5.49877H136.814C137.081 5.49877 137.267 5.64543 137.374 5.93877L139.234 10.7388H139.634V6.03877C139.634 5.8921 139.687 5.76543 139.794 5.65877C139.901 5.5521 140.027 5.49877 140.174 5.49877H142.814C142.961 5.49877 143.087 5.5521 143.194 5.65877C143.301 5.76543 143.354 5.8921 143.354 6.03877V10.7388H143.754L145.614 5.93877C145.721 5.64543 145.907 5.49877 146.174 5.49877H149.534C149.641 5.49877 149.727 5.5321 149.794 5.59877C149.861 5.66543 149.894 5.75877 149.894 5.87877C149.894 5.90543 149.867 5.99877 149.814 6.15877L147.314 12.1988L150.154 18.8388Z" fill="black"/>
<path d="M165.946 13.7188C165.946 15.7588 165.266 17.2654 163.906 18.2388C162.559 19.2121 160.759 19.6988 158.506 19.6988C156.253 19.6988 154.446 19.2121 153.086 18.2388C151.739 17.2654 151.066 15.7454 151.066 13.6788V11.3188C151.066 9.95877 151.386 8.8321 152.026 7.93877C152.679 7.0321 153.566 6.36543 154.686 5.93877C155.806 5.5121 157.079 5.29877 158.506 5.29877C159.933 5.29877 161.199 5.5121 162.306 5.93877C163.426 6.36543 164.313 7.02543 164.966 7.91877C165.619 8.8121 165.946 9.9321 165.946 11.2788V13.7188ZM156.466 14.0988C156.466 14.6454 156.646 15.0654 157.006 15.3588C157.379 15.6521 157.879 15.7988 158.506 15.7988C159.133 15.7988 159.626 15.6521 159.986 15.3588C160.359 15.0521 160.546 14.6254 160.546 14.0788V10.9188C160.546 10.3721 160.359 9.9521 159.986 9.65877C159.626 9.3521 159.133 9.19877 158.506 9.19877C157.879 9.19877 157.379 9.34543 157.006 9.63877C156.646 9.9321 156.466 10.3521 156.466 10.8988V14.0988Z" fill="black"/>
<path d="M168.298 19.6988C168.152 19.6988 168.018 19.6454 167.898 19.5388C167.792 19.4321 167.738 19.3054 167.738 19.1588V15.9588C167.738 15.8121 167.792 15.6854 167.898 15.5788C168.005 15.4721 168.132 15.4188 168.278 15.4188C168.758 15.4188 169.125 14.8588 169.378 13.7388C169.632 12.6188 169.758 10.9988 169.758 8.87877V6.03877C169.758 5.8921 169.812 5.76543 169.918 5.65877C170.025 5.5521 170.152 5.49877 170.298 5.49877H181.658C181.805 5.49877 181.932 5.5521 182.038 5.65877C182.145 5.76543 182.198 5.8921 182.198 6.03877V18.9588C182.198 19.1054 182.145 19.2321 182.038 19.3388C181.932 19.4454 181.805 19.4988 181.658 19.4988H177.938C177.792 19.4988 177.665 19.4454 177.558 19.3388C177.452 19.2321 177.398 19.1054 177.398 18.9588V9.79877H174.358V10.8188C174.358 13.8854 173.845 16.1321 172.818 17.5588C171.792 18.9854 170.285 19.6988 168.298 19.6988Z" fill="black"/>
</svg>
